# xmcd CD database file
#
# Track frame offsets:
#	150
#	23340
#	39563
#	55065
#	74014
#	86864
#	104582
#	122473
#	141714
#	159189
#	176531
#	195200
#	213458
#	230221
#	253889
#
# Disc length: 3552 seconds
#
# Revision: 1
# Processed by: cddbd v1.5.2PL0 Copyright (c) Steve Scherf et al.
# Submitted via: CDex 1.51
#
DISCID=d70dde0f
DTITLE=Various Artist - STTW-1271
DYEAR=1900
DGENRE=Blues
TTITLE0=Ocean Colour Scene - The Riverboat Song
TTITLE1=Space - Female Of The Species
TTITLE2=Boyzone - Baby Can I Hold You
TTITLE3=Lonestar - Amazed 
TTITLE4=Robbie Williams - Straighten Up And Fly Right
TTITLE5=Atomic Kitten - The Tide Is High
TTITLE6=Sophie Ellis Bextor - Music Gets The Best Of Me
TTITLE7=Kylie Vs New Order - I Just Can't Get You Outta My Head
TTITLE8=Blue Ft Elton John - Sorry Seems To Be The Hardest Word
TTITLE9=Ronan Keating Ft Lulu - We've Got Tonight
TTITLE10=Red Hot Chili Peppers - The Zephyr Song
TTITLE11=Elton John - Are You Ready For Love?
TTITLE12=Rachel Stevens - Sweet Dreams My LA Ex
TTITLE13=DJ Sammy - Boys Of Summer
TTITLE14=Robbie Williams - Have You Met Miss Jones
EXTD=
EXTT0=
EXTT1=
EXTT2=
EXTT3=
EXTT4=
EXTT5=
EXTT6=
EXTT7=
EXTT8=
EXTT9=
EXTT10=
EXTT11=
EXTT12=
EXTT13=
EXTT14=
PLAYORDER=
